<svg id="Layer_1" data-name="Layer 1" xmlns="http://www.w3.org/2000/svg" xmlns:xlink="http://www.w3.org/1999/xlink" viewBox="0 0 80 80"><defs><style>.cls-1,.cls-2,.cls-4{fill:#f9dee0;}.cls-1,.cls-5,.cls-6{stroke:#d8262c;stroke-linejoin:round;stroke-width:3px;}.cls-1,.cls-6{stroke-linecap:round;}.cls-1{clip-rule:evenodd;}.cls-2,.cls-6{fill-rule:evenodd;}.cls-3{clip-path:url(#clip-path);}.cls-5,.cls-6{fill:none;}.cls-7{fill:#d92327;}</style><clipPath id="clip-path"><path class="cls-1" d="M-170-672.17h7.19a9.17,9.17,0,0,0,9.12-9.21,9.19,9.19,0,0,0-7.69-9.09.35.35,0,0,1-.3-.41,10.68,10.68,0,0,0,.16-1.88,11,11,0,0,0-10.93-11,11,11,0,0,0-9.38,5.36.36.36,0,0,1-.42.16,9,9,0,0,0-3-.49,9.43,9.43,0,0,0-9.37,9.45c0,.05,0,.09,0,.13a8.5,8.5,0,0,0-7.73,8.49,8.5,8.5,0,0,0,8.44,8.53h8.62"/></clipPath></defs><title>ic-Collar-v2</title><path class="cls-2" d="M-170-672.17h7.19a9.17,9.17,0,0,0,9.12-9.21,9.19,9.19,0,0,0-7.69-9.09.35.35,0,0,1-.3-.41,10.68,10.68,0,0,0,.16-1.88,11,11,0,0,0-10.93-11,11,11,0,0,0-9.38,5.36.36.36,0,0,1-.42.16,9,9,0,0,0-3-.49,9.43,9.43,0,0,0-9.37,9.45c0,.05,0,.09,0,.13a8.5,8.5,0,0,0-7.73,8.49,8.5,8.5,0,0,0,8.44,8.53h8.62"/><g class="cls-3"><rect class="cls-4" x="-640.01" y="-842.96" width="922.66" height="2521.44"/><rect class="cls-5" x="-640.01" y="-842.96" width="922.66" height="2521.44"/></g><path class="cls-6" d="M-170-672.17h7.19a9.17,9.17,0,0,0,9.12-9.21,9.19,9.19,0,0,0-7.69-9.09.35.35,0,0,1-.3-.41,10.68,10.68,0,0,0,.16-1.88,11,11,0,0,0-10.93-11,11,11,0,0,0-9.38,5.36.36.36,0,0,1-.42.16,9,9,0,0,0-3-.49,9.43,9.43,0,0,0-9.37,9.45c0,.05,0,.09,0,.13a8.5,8.5,0,0,0-7.73,8.49,8.5,8.5,0,0,0,8.44,8.53h8.62"/><circle class="cls-7" cx="50.63" cy="27.3" r="3"/><circle class="cls-7" cx="29.38" cy="27.3" r="3"/><path class="cls-7" d="M65,38.22V36.54A24.13,24.13,0,0,0,58.06,19.3l8-8A2,2,0,1,0,63.2,8.5L55,16.71a25.67,25.67,0,0,0-15-4.63,25.68,25.68,0,0,0-15,4.61L16.84,8.5A2,2,0,0,0,14,11.33l8,8a24.13,24.13,0,0,0-7,17.26v1.68A9,9,0,0,0,8,47V63a7,7,0,0,0,14,0V62l-4-1.88V63a3,3,0,0,1-6,0V53.21l17.83,8.3,10.08-8.78L50,61.51l18-8.38V63a3,3,0,0,1-6,0V60.12L58,62v1a7,7,0,0,0,14,0V47A9,9,0,0,0,65,38.22ZM40,16.08c12.17,0,21,8.61,21,20.46v2.11L39.91,47.89,19,38.73V36.54C19,24.69,27.83,16.08,40,16.08ZM29.16,56.79,12,48.8V47a5,5,0,0,1,4.59-5l19.63,8.6Zm21.5,0L43.6,50.64,63.27,42A5,5,0,0,1,68,47v1.72Z"/><circle class="cls-7" cx="39.91" cy="60.98" r="3"/></svg>